<mxfile host="app.diagrams.net" agent="Mozilla/5.0 (Windows NT 10.0; Win64; x64) AppleWebKit/537.36 (KHTML, like Gecko) Chrome/128.0.0.0 Safari/537.36 OPR/114.0.0.0" version="25.0.3">
  <diagram name="Page-1" id="D_c25MTS4sMs4tudxByK">
    <mxGraphModel grid="1" page="1" gridSize="10" guides="1" tooltips="1" connect="1" arrows="1" fold="1" pageScale="1" pageWidth="850" pageHeight="1100" math="0" shadow="0">
      <root>
        <mxCell id="0" />
        <mxCell id="1" parent="0" />
        <mxCell id="yNFw9FRE0S7sov7wL6gS-4" value="" style="edgeStyle=orthogonalEdgeStyle;rounded=0;orthogonalLoop=1;jettySize=auto;html=1;" edge="1" parent="1" source="yNFw9FRE0S7sov7wL6gS-2" target="yNFw9FRE0S7sov7wL6gS-3">
          <mxGeometry relative="1" as="geometry" />
        </mxCell>
        <mxCell id="yNFw9FRE0S7sov7wL6gS-2" value="Power Input" style="rounded=0;whiteSpace=wrap;html=1;" vertex="1" parent="1">
          <mxGeometry x="40" y="40" width="120" height="60" as="geometry" />
        </mxCell>
        <mxCell id="yNFw9FRE0S7sov7wL6gS-6" value="" style="edgeStyle=orthogonalEdgeStyle;rounded=0;orthogonalLoop=1;jettySize=auto;html=1;" edge="1" parent="1" source="yNFw9FRE0S7sov7wL6gS-3" target="yNFw9FRE0S7sov7wL6gS-5">
          <mxGeometry relative="1" as="geometry" />
        </mxCell>
        <mxCell id="yNFw9FRE0S7sov7wL6gS-3" value="Inputs" style="rounded=0;whiteSpace=wrap;html=1;" vertex="1" parent="1">
          <mxGeometry x="40" y="140" width="120" height="60" as="geometry" />
        </mxCell>
        <mxCell id="yNFw9FRE0S7sov7wL6gS-8" value="" style="edgeStyle=orthogonalEdgeStyle;rounded=0;orthogonalLoop=1;jettySize=auto;html=1;" edge="1" parent="1" source="yNFw9FRE0S7sov7wL6gS-5" target="yNFw9FRE0S7sov7wL6gS-7">
          <mxGeometry relative="1" as="geometry" />
        </mxCell>
        <mxCell id="yNFw9FRE0S7sov7wL6gS-5" value="Outputs" style="whiteSpace=wrap;html=1;rounded=0;" vertex="1" parent="1">
          <mxGeometry x="40" y="240" width="120" height="60" as="geometry" />
        </mxCell>
        <mxCell id="yNFw9FRE0S7sov7wL6gS-10" value="" style="edgeStyle=orthogonalEdgeStyle;rounded=0;orthogonalLoop=1;jettySize=auto;html=1;" edge="1" parent="1" source="yNFw9FRE0S7sov7wL6gS-7" target="yNFw9FRE0S7sov7wL6gS-9">
          <mxGeometry relative="1" as="geometry" />
        </mxCell>
        <mxCell id="yNFw9FRE0S7sov7wL6gS-7" value="Output Drivers" style="whiteSpace=wrap;html=1;rounded=0;" vertex="1" parent="1">
          <mxGeometry x="40" y="340" width="120" height="60" as="geometry" />
        </mxCell>
        <mxCell id="yNFw9FRE0S7sov7wL6gS-9" value="Output Devices" style="whiteSpace=wrap;html=1;rounded=0;" vertex="1" parent="1">
          <mxGeometry x="40" y="440" width="120" height="60" as="geometry" />
        </mxCell>
      </root>
    </mxGraphModel>
  </diagram>
</mxfile>
